HIERARCHY
ROOT root
{
	OFFSET 0.000000 0.000000 0.000000
	CHANNELS 6 Xposition Yposition Zposition Zrotation Yrotation Xrotation
	JOINT lhip
	{
		OFFSET 0.058581 -0.082280 -0.017664
		CHANNELS 3 Zrotation Yrotation Xrotation
		JOINT lknee
		{
			OFFSET 0.043451 -0.386469 0.008037
			CHANNELS 3 Zrotation Yrotation Xrotation
			JOINT lankle
			{
				OFFSET -0.014790 -0.426874 -0.037428
				CHANNELS 3 Zrotation Yrotation Xrotation
				JOINT ltoe
				{
					OFFSET 0.041054 -0.060286 0.122042
					CHANNELS 3 Zrotation Yrotation Xrotation
					End Site
					{
						OFFSET 0.000000 0.000000 0.000000
					}
				}
			}
		}
	}
	JOINT rhip
	{
		OFFSET -0.060310 -0.090513 -0.013543
		CHANNELS 3 Zrotation Yrotation Xrotation
		JOINT rknee
		{
			OFFSET -0.043257 -0.383688 -0.004843
			CHANNELS 3 Zrotation Yrotation Xrotation
			JOINT rankle
			{
				OFFSET 0.019056 -0.420046 -0.034562
				CHANNELS 3 Zrotation Yrotation Xrotation
				JOINT rtoe
				{
					OFFSET -0.034840 -0.062106 0.130323
					CHANNELS 3 Zrotation Yrotation Xrotation
					End Site
					{
						OFFSET 0.000000 0.000000 0.000000
					}
				}
			}
		}
	}
	JOINT lowerback
	{
		OFFSET 0.004439 0.124404 -0.038385
		CHANNELS 3 Zrotation Yrotation Xrotation
		JOINT upperback
		{
			OFFSET 0.004488 0.137956 0.026820
			CHANNELS 3 Zrotation Yrotation Xrotation
			JOINT chest
			{
				OFFSET -0.002265 0.056032 0.002855
				CHANNELS 3 Zrotation Yrotation Xrotation
				JOINT lowerneck
				{
					OFFSET -0.013390 0.211636 -0.033468
					CHANNELS 3 Zrotation Yrotation Xrotation
					JOINT upperneck
					{
						OFFSET 0.010113 0.088937 0.050410
						CHANNELS 3 Zrotation Yrotation Xrotation
						End Site
						{
							OFFSET 0.000000 0.000000 0.000000
						}
					}
				}
				JOINT lclavicle
				{
					OFFSET 0.071702 0.114000 -0.018898
					CHANNELS 3 Zrotation Yrotation Xrotation
					JOINT lshoulder
					{
						OFFSET 0.122921 0.045205 -0.019046
						CHANNELS 3 Zrotation Yrotation Xrotation
						JOINT lelbow
						{
							OFFSET 0.255332 -0.015649 -0.022946
							CHANNELS 3 Zrotation Yrotation Xrotation
							JOINT lwrist
							{
								OFFSET 0.265709 0.012698 -0.007375
								CHANNELS 3 Zrotation Yrotation Xrotation
								End Site
								{
									OFFSET 0.000000 0.000000 0.000000
								}
							}
						}
					}
				}
				JOINT rclavicle
				{
					OFFSET -0.082954 0.112472 -0.023707
					CHANNELS 3 Zrotation Yrotation Xrotation
					JOINT rshoulder
					{
						OFFSET -0.113228 0.046853 -0.008472
						CHANNELS 3 Zrotation Yrotation Xrotation
						JOINT relbow
						{
							OFFSET -0.260127 -0.014369 -0.031269
							CHANNELS 3 Zrotation Yrotation Xrotation
							JOINT rwrist
							{
								OFFSET -0.269108 0.006794 -0.006027
								CHANNELS 3 Zrotation Yrotation Xrotation
								End Site
								{
									OFFSET 0.000000 0.000000 0.000000
								}
							}
						}
					}
				}
			}
		}
	}
}
MOTION
Frames: 14
Frame Time: 0.033333
1.696364 0.564311 0.882992 28.149141 -0.144067 90.421939 2.658628 -3.456401 -30.570085 -8.056098 2.562599 51.068015 9.203706 6.952577 -28.923782 0.000000 -0.000000 0.000000 -4.065580 2.280443 -34.128640 -0.833391 -5.095993 63.233572 3.989667 -3.770913 -28.395310 0.000000 -0.000000 0.000000 -1.567533 -0.439919 23.568628 2.988937 0.626405 -13.804974 -2.363547 -0.980255 -0.905445 5.654457 -4.518089 -8.958034 -8.475226 -17.908483 24.610483 -23.099209 2.433744 -4.713000 -50.069786 -19.409172 7.724169 98.430348 -77.122292 -68.622792 -18.775046 -14.538165 -4.691467 24.243041 4.284214 -7.680689 56.251524 19.127665 18.310284 -106.699612 70.243607 -71.818865 30.339538 7.239349 8.582685 
1.696446 0.564526 0.883193 28.127620 -0.119491 90.487989 2.692543 -3.430157 -30.630082 -8.070439 2.586786 51.020586 9.190874 6.917475 -28.887127 0.000000 -0.000000 0.000000 -4.032168 2.293352 -34.203263 -0.840112 -5.064828 63.199091 4.017142 -3.763347 -28.353645 0.000000 -0.000000 0.000000 -1.532750 -0.437067 23.672566 2.976995 0.670323 -13.838114 -2.351079 -0.978727 -0.876108 5.539703 -4.351280 -9.033150 -8.521185 -17.721767 24.515287 -23.080313 2.414473 -4.747884 -50.069780 -19.419624 7.755049 98.614039 -77.185645 -68.786965 -18.793093 -14.596069 -4.715441 24.234059 4.264887 -7.699010 56.204011 19.122000 18.309049 -106.691639 70.239260 -71.815975 30.335302 7.239606 8.621327 
1.696531 0.564769 0.883209 28.133139 -0.081974 90.579751 2.702086 -3.426686 -30.763606 -8.036578 2.575699 51.061390 9.199825 6.904063 -28.891893 0.000000 -0.000000 0.000000 -4.000186 2.310092 -34.329083 -0.868055 -5.064885 63.230390 4.025427 -3.789807 -28.352331 0.000000 -0.000000 0.000000 -1.490012 -0.437279 23.729848 2.983208 0.701216 -13.848888 -2.336100 -1.000714 -0.836464 5.460959 -4.246637 -9.181920 -8.576047 -17.630058 24.380722 -23.063366 2.389132 -4.794768 -50.058551 -19.446663 7.785118 98.791395 -77.217829 -68.954191 -18.856356 -14.644099 -4.762640 24.237158 4.260882 -7.754846 56.151469 19.145468 18.332661 -106.633552 70.197466 -71.777354 30.352211 7.214007 8.675872 
1.697001 0.564924 0.883028 28.185975 -0.091195 90.629318 2.634306 -3.477773 -30.851912 -7.988762 2.563799 51.124225 9.214857 6.905810 -28.911460 0.000000 -0.000000 0.000000 -4.049613 2.258402 -34.386168 -0.900823 -5.066958 63.271693 4.033060 -3.793155 -28.376266 0.000000 -0.000000 0.000000 -1.456210 -0.461319 23.797414 2.979720 0.653116 -13.810204 -2.333014 -1.019998 -0.836854 5.379282 -4.181142 -9.289430 -8.565625 -17.569033 24.167389 -23.044441 2.326009 -4.830739 -50.048057 -19.457443 7.790790 99.003720 -77.221898 -69.109038 -18.875822 -14.639188 -4.765625 24.251617 4.332230 -7.793868 56.107907 19.173279 18.323171 -106.540330 70.129758 -71.702655 30.346648 7.176838 8.732179 
1.697357 0.564982 0.882762 28.221205 -0.096046 90.670271 2.611811 -3.530088 -30.938329 -7.974498 2.587792 51.205955 9.217924 6.904659 -28.945115 0.000000 -0.000000 0.000000 -4.084390 2.257199 -34.456826 -0.932346 -5.076091 63.349316 4.048329 -3.783825 -28.401736 0.000000 -0.000000 0.000000 -1.446266 -0.476576 23.856136 2.979443 0.622682 -13.776878 -2.342664 -1.022044 -0.820032 5.362774 -4.159852 -9.447273 -8.565133 -17.606438 24.018560 -23.028757 2.262640 -4.897148 -50.056348 -19.531100 7.825493 99.003950 -77.220275 -69.093726 -18.849441 -14.632847 -4.756476 24.262110 4.372988 -7.838580 56.135568 19.213308 18.326178 -106.422378 70.037343 -71.582500 30.349708 7.161590 8.807574 
1.697753 0.564893 0.882464 28.231345 -0.084781 90.683492 2.622056 -3.543502 -31.000348 -8.005041 2.609513 51.318694 9.202776 6.899915 -28.980868 0.000000 -0.000000 0.000000 -4.087168 2.292518 -34.495873 -0.962432 -5.070707 63.438694 4.059427 -3.793686 -28.439382 0.000000 -0.000000 0.000000 -1.434832 -0.481058 23.906632 2.979956 0.612558 -13.746721 -2.356544 -1.024062 -0.816143 5.355202 -4.169197 -9.564567 -8.576618 -17.682030 23.949066 -23.027199 2.151176 -4.899947 -50.032503 -19.600015 7.831958 99.050086 -77.175965 -69.112828 -18.860133 -14.609972 -4.734658 24.267095 4.424607 -7.848384 56.159859 19.228058 18.302995 -106.338848 69.948947 -71.462717 30.362798 7.158002 8.810674 
1.698145 0.564665 0.882119 28.240325 -0.078792 90.690062 2.613268 -3.559835 -31.045589 -8.015907 2.616115 51.441207 9.202741 6.913110 -29.033767 0.000000 -0.000000 0.000000 -4.087554 2.333347 -34.518339 -0.996559 -5.058670 63.535308 4.061520 -3.835543 -28.495665 0.000000 -0.000000 0.000000 -1.443605 -0.483042 23.939612 2.985946 0.610525 -13.749823 -2.359103 -1.040233 -0.813468 5.362721 -4.211224 -9.659749 -8.621222 -17.763795 23.954700 -23.030101 2.073332 -4.903487 -50.043630 -19.663855 7.854384 99.091720 -77.156105 -69.110162 -18.899548 -14.594685 -4.707750 24.280266 4.446726 -7.870361 56.204428 19.239719 18.313958 -106.265148 69.895764 -71.344482 30.400902 7.150188 8.817812 
1.698581 0.564354 0.881736 28.244855 -0.078328 90.684233 2.588250 -3.598724 -31.070267 -8.001588 2.621298 51.571074 9.231936 6.946269 -29.110165 0.000000 -0.000000 0.000000 -4.092559 2.382323 -34.530516 -1.020529 -5.035050 63.650690 4.069497 -3.879434 -28.560205 0.000000 -0.000000 0.000000 -1.471755 -0.499745 23.962721 2.999204 0.604711 -13.765134 -2.353454 -1.058265 -0.803266 5.365720 -4.271758 -9.747174 -8.669519 -17.809415 23.948960 -23.023289 2.036030 -4.920514 -50.083904 -19.716733 7.885649 99.198984 -77.148457 -69.194095 -18.958213 -14.596970 -4.707652 24.280911 4.478128 -7.884077 56.273511 19.259846 18.354009 -106.259169 69.847673 -71.320806 30.429920 7.126156 8.870444 
1.698974 0.563953 0.881195 28.257485 -0.101713 90.653628 2.558114 -3.650288 -31.090157 -8.009513 2.649644 51.742615 9.244187 6.981510 -29.199095 0.000000 -0.000000 0.000000 -4.109914 2.435491 -34.538108 -1.057182 -5.006565 63.820270 4.073674 -3.930431 -28.650883 0.000000 -0.000000 0.000000 -1.551339 -0.506822 23.992636 3.017119 0.568822 -13.768008 -2.330628 -1.071755 -0.800145 5.336078 -4.257655 -9.800660 -8.628783 -17.811222 23.818206 -22.995065 1.975458 -4.933095 -50.107218 -19.742612 7.902160 99.473744 -77.125437 -69.436916 -18.960377 -14.599359 -4.780831 24.265417 4.536654 -7.880835 56.319502 19.260863 18.387371 -106.411403 69.801636 -71.443886 30.419923 7.133368 8.834712 
1.699248 0.563480 0.880404 28.248191 -0.116543 90.606042 2.527531 -3.648502 -31.128671 -8.004000 2.669383 51.994891 9.228435 7.004860 -29.324850 0.000000 -0.000000 0.000000 -4.092858 2.510255 -34.552346 -1.092606 -4.943811 64.038677 4.080934 -3.998955 -28.780945 0.000000 -0.000000 0.000000 -1.621453 -0.505854 24.046790 3.017835 0.551658 -13.757447 -2.311058 -1.074356 -0.780611 5.371740 -4.204232 -10.000910 -8.540935 -17.847281 23.491165 -22.975784 1.903012 -5.003044 -50.053022 -19.790841 7.884819 99.783983 -77.139410 -69.711483 -19.017128 -14.616114 -4.797753 24.256545 4.556756 -7.980317 56.346003 19.247241 18.440422 -106.715357 69.814281 -71.752977 30.415407 7.162489 8.775167 
1.699390 0.563099 0.879376 28.226235 -0.126426 90.580788 2.528401 -3.650440 -31.241180 -7.994976 2.728998 52.314113 9.235807 7.038294 -29.484949 0.000000 -0.000000 0.000000 -4.078335 2.612460 -34.648063 -1.128549 -4.909179 64.330855 4.081756 -4.062714 -28.938423 0.000000 -0.000000 0.000000 -1.688190 -0.510948 24.123220 3.017351 0.541379 -13.760974 -2.296911 -1.074821 -0.757811 5.475063 -4.135149 -10.408899 -8.451348 -17.889264 23.037984 -22.962635 1.814357 -5.100924 -49.890110 -19.832950 7.845760 100.087016 -77.147311 -70.041311 -19.071238 -14.633207 -4.795605 24.238868 4.599876 -8.088039 56.318080 19.225953 18.501400 -107.120442 69.828355 -72.171477 30.385280 7.176721 8.688833 
1.699400 0.562773 0.878027 28.198703 -0.101601 90.570305 2.583963 -3.618345 -31.435320 -8.009048 2.786524 52.730091 9.220781 7.059861 -29.670009 0.000000 -0.000000 0.000000 -4.017770 2.704951 -34.800109 -1.169089 -4.871076 64.685129 4.062320 -4.116295 -29.128919 0.000000 -0.000000 0.000000 -1.705968 -0.525695 24.208925 3.013267 0.555130 -13.771078 -2.294222 -1.083117 -0.746893 5.550722 -4.024698 -10.912440 -8.348275 -17.945920 22.564533 -22.953595 1.699523 -5.199232 -49.660311 -19.858674 7.793362 100.247431 -77.149877 -70.246653 -19.182416 -14.673184 -4.796095 24.226361 4.679192 -8.191587 56.277899 19.212725 18.542920 -107.410960 69.810331 -72.463987 30.376329 7.214164 8.595278 
1.699250 0.562529 0.876465 28.166747 -0.056426 90.558920 2.681458 -3.569507 -31.653812 -8.042249 2.862781 53.188766 9.191455 7.053124 -29.877461 0.000000 -0.000000 0.000000 -3.952141 2.788273 -34.974089 -1.187315 -4.854698 65.060848 4.049103 -4.173148 -29.315026 0.000000 -0.000000 0.000000 -1.712760 -0.540371 24.318030 3.020740 0.559702 -13.767994 -2.289051 -1.088057 -0.753700 5.610003 -3.860922 -11.481563 -8.242174 -18.019071 22.129520 -22.922009 1.569577 -5.291143 -49.441683 -19.887063 7.699357 100.185034 -77.101107 -70.185214 -19.353884 -14.720212 -4.688207 24.251592 4.798096 -8.284412 56.238536 19.243169 18.560876 -107.491617 69.745852 -72.537302 30.432168 7.234651 8.628893 
1.699077 0.562418 0.874830 28.135503 -0.048855 90.549097 2.745874 -3.537102 -31.876934 -8.062663 2.974530 53.635018 9.180476 7.057629 -30.079720 0.000000 -0.000000 0.000000 -3.947856 2.852685 -35.176630 -1.171050 -4.849081 65.460902 4.039526 -4.229400 -29.505772 0.000000 -0.000000 0.000000 -1.754005 -0.547064 24.427539 3.030538 0.557116 -13.736539 -2.269644 -1.106407 -0.755965 5.682343 -3.768312 -12.155626 -8.174483 -18.154422 21.672577 -22.926416 1.424368 -5.370979 -49.221731 -19.898084 7.577090 100.117253 -77.024542 -70.116474 -19.520818 -14.731173 -4.503038 24.263190 4.927187 -8.382219 56.208058 19.283064 18.571473 -107.453704 69.671523 -72.518811 30.494288 7.190418 8.758642 
